<mxfile host="app.diagrams.net" modified="2023-05-06T13:53:35.949Z" agent="Mozilla/5.0 (Windows NT 10.0; Win64; x64) AppleWebKit/537.36 (KHTML, like Gecko) Chrome/112.0.0.0 Safari/537.36" etag="4GvZRE6qci82NjNuu1rY" version="21.2.9" type="device">
  <diagram name="Page-1" id="pO0z013DQIusNS9NviR8">
    <mxGraphModel dx="1347" dy="734" grid="1" gridSize="10" guides="1" tooltips="1" connect="1" arrows="1" fold="1" page="1" pageScale="1" pageWidth="850" pageHeight="1100" math="0" shadow="0">
      <root>
        <mxCell id="0" />
        <mxCell id="1" parent="0" />
        <mxCell id="7kVAJvOqVkUmU7pnSJS7-33" value="" style="rounded=0;whiteSpace=wrap;html=1;" vertex="1" parent="1">
          <mxGeometry x="395" y="220" width="180" height="250" as="geometry" />
        </mxCell>
        <mxCell id="7kVAJvOqVkUmU7pnSJS7-10" value="" style="rounded=0;whiteSpace=wrap;html=1;" vertex="1" parent="1">
          <mxGeometry x="210" y="220" width="180" height="250" as="geometry" />
        </mxCell>
        <mxCell id="7kVAJvOqVkUmU7pnSJS7-2" value="Otter" style="rounded=0;whiteSpace=wrap;html=1;" vertex="1" parent="1">
          <mxGeometry x="285" y="410" width="30" height="50" as="geometry" />
        </mxCell>
        <mxCell id="7kVAJvOqVkUmU7pnSJS7-15" value="" style="endArrow=classic;html=1;rounded=0;" edge="1" parent="1">
          <mxGeometry width="50" height="50" relative="1" as="geometry">
            <mxPoint x="300" y="410" as="sourcePoint" />
            <mxPoint x="300" y="312" as="targetPoint" />
          </mxGeometry>
        </mxCell>
        <mxCell id="7kVAJvOqVkUmU7pnSJS7-17" value="Real&lt;br&gt;Heading" style="text;html=1;align=center;verticalAlign=middle;resizable=0;points=[];autosize=1;strokeColor=none;fillColor=none;" vertex="1" parent="1">
          <mxGeometry x="295" y="340" width="70" height="40" as="geometry" />
        </mxCell>
        <mxCell id="7kVAJvOqVkUmU7pnSJS7-20" value="" style="ellipse;whiteSpace=wrap;html=1;aspect=fixed;fillColor=#dae8fc;strokeColor=#6c8ebf;" vertex="1" parent="1">
          <mxGeometry x="290" y="235" width="20" height="20" as="geometry" />
        </mxCell>
        <mxCell id="7kVAJvOqVkUmU7pnSJS7-21" value="Trash" style="text;html=1;align=center;verticalAlign=middle;resizable=0;points=[];autosize=1;strokeColor=none;fillColor=none;" vertex="1" parent="1">
          <mxGeometry x="220" y="170" width="50" height="30" as="geometry" />
        </mxCell>
        <mxCell id="7kVAJvOqVkUmU7pnSJS7-22" value="Aligned measurement" style="text;html=1;align=left;verticalAlign=middle;resizable=0;points=[];autosize=1;strokeColor=none;fillColor=none;" vertex="1" parent="1">
          <mxGeometry x="225" y="190" width="140" height="30" as="geometry" />
        </mxCell>
        <mxCell id="7kVAJvOqVkUmU7pnSJS7-23" value="" style="ellipse;whiteSpace=wrap;html=1;aspect=fixed;fillColor=#dae8fc;strokeColor=#6c8ebf;" vertex="1" parent="1">
          <mxGeometry x="210" y="180" width="10" height="10" as="geometry" />
        </mxCell>
        <mxCell id="7kVAJvOqVkUmU7pnSJS7-25" value="&lt;font color=&quot;#ff1008&quot;&gt;X&lt;/font&gt;" style="text;html=1;align=center;verticalAlign=middle;resizable=0;points=[];autosize=1;strokeColor=none;fillColor=none;" vertex="1" parent="1">
          <mxGeometry x="285" y="230" width="30" height="30" as="geometry" />
        </mxCell>
        <mxCell id="7kVAJvOqVkUmU7pnSJS7-26" value="Otter" style="rounded=0;whiteSpace=wrap;html=1;direction=west;rotation=-15;" vertex="1" parent="1">
          <mxGeometry x="470" y="410" width="30" height="50" as="geometry" />
        </mxCell>
        <mxCell id="7kVAJvOqVkUmU7pnSJS7-27" value="" style="endArrow=classic;html=1;rounded=0;exitX=0.5;exitY=1;exitDx=0;exitDy=0;" edge="1" parent="1" source="7kVAJvOqVkUmU7pnSJS7-26">
          <mxGeometry width="50" height="50" relative="1" as="geometry">
            <mxPoint x="484.8" y="410" as="sourcePoint" />
            <mxPoint x="451" y="314" as="targetPoint" />
          </mxGeometry>
        </mxCell>
        <mxCell id="7kVAJvOqVkUmU7pnSJS7-28" value="Real &lt;br&gt;Heading" style="text;html=1;align=center;verticalAlign=middle;resizable=0;points=[];autosize=1;strokeColor=none;fillColor=none;rotation=-15;" vertex="1" parent="1">
          <mxGeometry x="405" y="360" width="70" height="40" as="geometry" />
        </mxCell>
        <mxCell id="7kVAJvOqVkUmU7pnSJS7-29" value="" style="ellipse;whiteSpace=wrap;html=1;aspect=fixed;fillColor=#dae8fc;strokeColor=#6c8ebf;direction=west;" vertex="1" parent="1">
          <mxGeometry x="475" y="235" width="20" height="20" as="geometry" />
        </mxCell>
        <mxCell id="7kVAJvOqVkUmU7pnSJS7-30" value="&lt;font color=&quot;#ff1008&quot;&gt;X&lt;/font&gt;" style="text;html=1;align=center;verticalAlign=middle;resizable=0;points=[];autosize=1;strokeColor=none;fillColor=none;" vertex="1" parent="1">
          <mxGeometry x="500" y="235" width="30" height="30" as="geometry" />
        </mxCell>
        <mxCell id="7kVAJvOqVkUmU7pnSJS7-32" value="&lt;font color=&quot;#ff1008&quot;&gt;X&lt;/font&gt;" style="text;html=1;align=center;verticalAlign=middle;resizable=0;points=[];autosize=1;strokeColor=none;fillColor=none;" vertex="1" parent="1">
          <mxGeometry x="200" y="190" width="30" height="30" as="geometry" />
        </mxCell>
        <mxCell id="7kVAJvOqVkUmU7pnSJS7-38" value="" style="endArrow=classic;dashed=1;html=1;dashPattern=1 3;strokeWidth=1;rounded=0;startArrow=none;startFill=0;endFill=1;" edge="1" parent="1">
          <mxGeometry width="50" height="50" relative="1" as="geometry">
            <mxPoint x="480" y="410" as="sourcePoint" />
            <mxPoint x="478" y="315" as="targetPoint" />
          </mxGeometry>
        </mxCell>
        <mxCell id="7kVAJvOqVkUmU7pnSJS7-39" value="Assumed&amp;nbsp;&lt;br&gt;heading" style="text;html=1;align=center;verticalAlign=middle;resizable=0;points=[];autosize=1;strokeColor=none;fillColor=none;" vertex="1" parent="1">
          <mxGeometry x="470" y="340" width="80" height="40" as="geometry" />
        </mxCell>
      </root>
    </mxGraphModel>
  </diagram>
</mxfile>
